PathFileType	4	(X/Y/Z)	/Users/itak/Documents/Research/Walk-IL/dataset/trc/00356_00011.trc
DataRate	CameraRate	NumFrames	NumMarkers	Units	OrigDataRate	OrigDataStartFrame	OrigNumFrames
100.000000	100.000000	4	54	mm	100.000000	273	729
Frame#	Time	RPSI			LPSI			STRN			T10			C7			CLAV			RBAK			LBAK			LSHO			LUPA			LAEL			LAOL			LWTS			LWPS			LFRA			LIFD			LHPS			LHTS			RSHO			RUPA			RAEL			RAOL			RWTS			RWPS			RFRA			RIFD			RHTS			RHPS			RBHD			LFHD			RFHD			LBHD			LHIP			RHIP			RASI			LASI			LKNE			LTHI			LANK			LTIP			LTOE			LMT1			LMT5			LHEE			RKNE			RANK			RTIP			RTOE			RMT1			RMT5			RHEE			L3			RTHI			*53			
		X1	Y1	Z1	X2	Y2	Z2	X3	Y3	Z3	X4	Y4	Z4	X5	Y5	Z5	X6	Y6	Z6	X7	Y7	Z7	X8	Y8	Z8	X9	Y9	Z9	X10	Y10	Z10	X11	Y11	Z11	X12	Y12	Z12	X13	Y13	Z13	X14	Y14	Z14	X15	Y15	Z15	X16	Y16	Z16	X17	Y17	Z17	X18	Y18	Z18	X19	Y19	Z19	X20	Y20	Z20	X21	Y21	Z21	X22	Y22	Z22	X23	Y23	Z23	X24	Y24	Z24	X25	Y25	Z25	X26	Y26	Z26	X27	Y27	Z27	X28	Y28	Z28	X29	Y29	Z29	X30	Y30	Z30	X31	Y31	Z31	X32	Y32	Z32	X33	Y33	Z33	X34	Y34	Z34	X35	Y35	Z35	X36	Y36	Z36	X37	Y37	Z37	X38	Y38	Z38	X39	Y39	Z39	X40	Y40	Z40	X41	Y41	Z41	X42	Y42	Z42	X43	Y43	Z43	X44	Y44	Z44	X45	Y45	Z45	X46	Y46	Z46	X47	Y47	Z47	X48	Y48	Z48	X49	Y49	Z49	X50	Y50	Z50	X51	Y51	Z51	X52	Y52	Z52	X53	Y53	Z53	X54	Y54	Z54	

274	2.73	-556.7396240234375	930.4401245117188	213.9256744384766	-681.8497314453125	947.1253662109375	185.6842956542969	-565.7105712890625	1167.470581054688	-35.11416625976562	-644.9405517578125	1118.767211914062	194.6259307861328	-641.9711303710938	1362.701293945312	132.3771820068359	-577.8016357421875	1296.661376953125	-5.588559627532959	-602.6828002929688	1228.066162109375	213.8334808349609	-740.5609130859375	1326.32568359375	106.2177581787109	-757.944580078125	1341.581787109375	6.204965591430664	-835.9898681640625	1230.592041015625	-10.63944816589355	-881.244873046875	1043.4326171875	-78.80006408691406	-847.8466796875	1004.264099121094	-10.97923183441162	-840.9756469726562	848.5897216796875	-241.5005798339844	-904.2110595703125	832.3160400390625	-217.8816528320312	-898.5581665039062	951.14697265625	-127.3230209350586	-849.855224609375	705.4723510742188	-310.5469665527344	-906.4443969726562	767.8120727539062	-243.6879119873047	-863.5991821289062	786.3802490234375	-287.9671630859375	-471.4789123535156	1347.094360351562	145.7595367431641	-424.0000610351562	1287.046264648438	193.7598419189453	-417.9505004882812	1031.05322265625	273.05615234375	-509.7097778320312	1024.203125	251.6004180908203	-395.154052734375	780.83837890625	229.4747772216797	-368.451904296875	785.7704467773438	301.3790893554688	-398.1730346679688	962.7714233398438	279.0137634277344	-403.8511352539062	614.584228515625	283.0179748535156	-378.0886840820312	676.7140502929688	251.4692535400391	-369.5865478515625	700.4041137695312	316.2816467285156	-551.8003540039062	1566.0556640625	119.0055465698242	-561.5567626953125	1564.614624023438	-89.70059967041016	-481.8957824707031	1563.786499023438	-28.00252151489258	-680.8790893554688	1564.838134765625	53.25898742675781	-777.807373046875	891.6084594726562	90.29405975341797	-441.2235717773438	872.341796875	148.359619140625	-469.9959411621094	900.653564453125	39.92683410644531	-702.6361694335938	900.8232421875	-24.83942031860352	-804.8858642578125	456.6311950683594	170.8533782958984	-798.8654174804688	584.38818359375	125.6540985107422	-838.6558837890625	92.20973968505859	424.2401123046875	-836.0244140625	268.2695007324219	295.7656860351562	-807.9346313476562	41.46491622924805	224.8475952148438	-755.56640625	36.00537872314453	283.6958923339844	-868.1651611328125	48.49639892578125	310.2772521972656	-766.4248657226562	96.12857055664062	447.6184692382812	-464.3767700195312	439.7558898925781	-53.97459411621094	-526.8258666992188	43.93506240844727	-145.5736389160156	-471.3853149414062	332.2422790527344	-102.1764831542969	-444.9140319824219	89.24320220947266	-317.9897155761719	-509.6852416992188	69.11572265625	-306.220703125	-444.9690551757812	50.56866073608398	-209.5555725097656	-594.6734619140625	39.44634246826172	-138.5092620849609	-626.3831176757812	1002.092163085938	200.9692687988281	-421.3711853027344	687.6477661132812	24.63248252868652	nan	nan	nan	
275	2.74	-553.9588012695312	931.2407836914062	203.3854522705078	-678.9786987304688	947.4579467773438	174.1359710693359	-560.4134521484375	1168.244384765625	-44.65237808227539	-642.2572021484375	1118.581909179688	184.6061553955078	-637.7864379882812	1362.939086914062	123.3291931152344	-572.6412353515625	1297.290161132812	-14.49202060699463	-599.4434814453125	1227.855712890625	204.5727996826172	-736.2301635742188	1326.9404296875	96.45990753173828	-753.0014038085938	1342.202758789062	-3.667048931121826	-830.7335205078125	1230.874145507812	-20.52745246887207	-875.402099609375	1043.286010742188	-87.37641143798828	-842.1279296875	1004.522583007812	-19.25234985351562	-832.5613403320312	849.41259765625	-250.1095733642578	-895.8912963867188	832.3892822265625	-227.1273345947266	-891.9758911132812	950.9839477539062	-135.9778137207031	-839.4025268554688	706.6793823242188	-320.1117248535156	-897.0779418945312	767.9526977539062	-253.3193359375	-854.2158813476562	787.2954711914062	-297.1243286132812	-467.5422668457031	1346.850708007812	138.1156158447266	-420.450927734375	1286.3955078125	186.0616455078125	-416.0062255859375	1030.062744140625	264.3539733886719	-507.6849060058594	1023.709777832031	242.2637329101562	-394.3660888671875	779.7355346679688	221.1440277099609	-367.8236389160156	784.7395629882812	293.1311645507812	-396.5284118652344	961.7765502929688	270.3982849121094	-405.0994567871094	613.6607666015625	275.3974304199219	-378.5523681640625	675.428466796875	243.6385345458984	-369.8351135253906	699.43310546875	308.340087890625	-547.595703125	1566.388305664062	111.3243789672852	-555.5703125	1565.533325195312	-97.44087982177734	-476.4339599609375	1564.572875976562	-35.0586051940918	-676.1434326171875	1565.3623046875	44.41994857788086	-774.3208618164062	891.7509155273438	78.12728881835938	-437.8114013671875	873.3991088867188	138.6793212890625	-466.0440979003906	901.4249267578125	30.05575752258301	-698.241943359375	900.9408569335938	-36.38477325439453	-802.3631591796875	457.2161865234375	158.6535339355469	-796.0342407226562	584.4894409179688	113.1021041870117	-839.8889770507812	98.49885559082031	420.3944091796875	-835.640625	271.773681640625	287.70751953125	-808.165771484375	41.58566284179688	224.8827514648438	-755.8997802734375	37.41522979736328	282.8609008789062	-869.1578369140625	49.49650573730469	308.4403381347656	-767.7593383789062	103.7110366821289	443.7064819335938	-460.6864624023438	439.9398193359375	-62.58515167236328	-527.2757568359375	44.35062026977539	-146.8201751708984	-468.78125	331.34619140625	-109.8339462280273	-444.2828369140625	82.77980041503906	-320.9227905273438	-509.0976867675781	62.99299621582031	-308.6537475585938	-445.2710266113281	48.18256378173828	-211.0482025146484	-595.1336669921875	40.36323165893555	-140.5758361816406	-623.7879028320312	1002.0185546875	190.3754119873047	-416.8511962890625	688.5430297851562	15.10966682434082	nan	nan	nan	
276	2.75	-551.0725708007812	932.4331665039062	192.8075561523438	-675.9928588867188	948.0833740234375	162.4452514648438	-554.98486328125	1169.377075195312	-54.20203018188477	-639.60791015625	1118.730102539062	174.5153656005859	-633.5982055664062	1363.496337890625	114.2017974853516	-567.3812866210938	1298.27490234375	-23.4118824005127	-596.1524658203125	1227.939575195312	195.1610260009766	-731.8260498046875	1327.862182617188	86.57111358642578	-747.9645385742188	1343.138061523438	-13.67436027526855	-825.3892822265625	1231.445678710938	-30.48972511291504	-869.4468383789062	1043.317016601562	-95.74180603027344	-836.1787109375	1005.083923339844	-27.29781723022461	-824.0137939453125	850.1629028320312	-258.1908569335938	-887.4257202148438	832.42529296875	-235.8123168945312	-885.2389526367188	950.934814453125	-144.2647094726562	-828.801513671875	707.701171875	-328.8447265625	-887.5072021484375	768.0039672851562	-262.2389831542969	-844.5884399414062	788.0339965820312	-305.5817565917969	-463.5777587890625	1346.9638671875	130.4585418701172	-416.9065856933594	1286.102661132812	178.3958740234375	-413.9527282714844	1029.4091796875	255.5361022949219	-505.4959411621094	1023.509216308594	232.7101593017578	-393.2197570800781	779.05322265625	212.3682403564453	-366.9522705078125	784.0242309570312	284.4792785644531	-394.7560424804688	961.1107788085938	261.6196899414062	-405.7074584960938	613.0762329101562	266.8984069824219	-378.4352416992188	674.605224609375	235.1429290771484	-369.7017211914062	698.7774658203125	299.7982482910156	-543.2813720703125	1566.985717773438	103.624153137207	-549.42333984375	1566.76416015625	-105.1778564453125	-470.824462890625	1565.614013671875	-42.09268188476562	-671.2586669921875	1566.231811523438	35.54783248901367	-770.5668334960938	892.1566772460938	65.67268371582031	-434.2053833007812	874.8091430664062	129.1044006347656	-461.7810974121094	902.5594482421875	20.28961181640625	-693.4092407226562	901.3729248046875	-48.03717422485352	-799.4570922851562	457.8809509277344	145.3371429443359	-792.7779541015625	584.67431640625	99.68750762939453	-841.17919921875	105.3814544677734	415.6074829101562	-835.1796264648438	275.6150207519531	278.6155090332031	-808.4686889648438	41.70944976806641	224.9385986328125	-756.2909545898438	38.97077178955078	281.75	-870.2805786132812	50.6146354675293	306.2364807128906	-769.1508178710938	111.9844055175781	438.7547912597656	-457.1554565429688	440.4386596679688	-70.83206939697266	-527.48291015625	45.10326385498047	-148.2443695068359	-466.1893920898438	330.875	-117.3869247436523	-444.3023071289062	76.98428344726562	-324.2885131835938	-509.1410522460938	57.5895881652832	-311.18896484375	-445.8478698730469	46.35260009765625	-213.1306762695312	-595.3544311523438	41.52451705932617	-142.4594116210938	-620.9793701171875	1002.277465820312	179.4565887451172	-412.2411804199219	689.3253173828125	6.122951030731201	nan	nan	nan	
277	2.76	-548.149658203125	933.9627685546875	182.2598571777344	-672.9188232421875	948.978515625	150.6861724853516	-549.4606323242188	1170.8349609375	-63.70501327514648	-636.9500732421875	1119.213256835938	164.3416137695312	-629.4382934570312	1364.358764648438	105.0061645507812	-562.0416870117188	1299.589111328125	-32.32220840454102	-592.8471069335938	1228.322631835938	185.6163940429688	-727.3759155273438	1329.067749023438	76.54896545410156	-742.8387451171875	1344.369506835938	-23.81884384155273	-819.9691162109375	1232.307739257812	-40.55470657348633	-863.3818969726562	1043.533081054688	-103.9300765991211	-830.0120239257812	1005.962951660156	-35.14008331298828	-815.3548583984375	850.8273315429688	-265.7681274414062	-878.8374633789062	832.4189453125	-243.9586334228516	-878.3482055664062	951.009521484375	-152.2118682861328	-818.0609130859375	708.5037841796875	-336.738037109375	-877.7765502929688	767.9573974609375	-270.454833984375	-834.7210693359375	788.5714721679688	-313.3435668945312	-459.63720703125	1347.446533203125	122.8144683837891	-413.4075012207031	1286.20263671875	170.7945556640625	-411.81005859375	1029.123779296875	246.6093139648438	-503.1387329101562	1023.616333007812	222.9115295410156	-391.6761779785156	778.81787109375	203.1573333740234	-365.8288879394531	783.6515502929688	275.4337463378906	-392.8726501464844	960.8033447265625	252.6732177734375	-405.627197265625	612.8460083007812	257.5226440429688	-377.7144470214844	674.2548828125	225.9955596923828	-369.1823425292969	698.4417724609375	290.6753234863281	-538.898193359375	1567.818359375	95.91768646240234	-543.1370239257812	1568.260009765625	-112.9001007080078	-465.0953369140625	1566.864868164062	-49.08704376220703	-666.2534790039062	1567.414672851562	26.64700508117676	-766.5435180664062	892.8317260742188	52.99220275878906	-430.4889526367188	876.5103149414062	119.7376937866211	-457.2340698242188	904.01953125	10.70725917816162	-688.1317138671875	902.1436157226562	-59.73065567016602	-796.234375	458.5714721679688	130.8236541748047	-789.117431640625	584.914306640625	85.41259002685547	-842.5652465820312	112.8299789428711	409.7169799804688	-834.6502075195312	279.6991577148438	268.3467712402344	-808.8504638671875	41.79292678833008	224.9668731689453	-756.7703857421875	40.63582229614258	280.3105773925781	-871.509033203125	51.87260818481445	303.5963134765625	-770.64111328125	120.904426574707	432.6246948242188	-453.7213439941406	441.2374877929688	-78.75675201416016	-527.4273681640625	46.01278305053711	-149.7368011474609	-463.5943908691406	330.7393798828125	-124.7670974731445	-444.864501953125	71.85315704345703	-327.8565063476562	-509.7315063476562	53.00566101074219	-313.6764221191406	-446.5978698730469	44.94233322143555	-215.6082153320312	-595.3057250976562	42.76378631591797	-144.059814453125	-617.9457397460938	1002.879516601562	168.2546691894531	-407.6727294921875	690.0153198242188	-2.303978204727173	nan	nan	nan	
